<svg width="30" height="31" viewBox="0 0 30 31" fill="none" xmlns="http://www.w3.org/2000/svg">
<path d="M6.75 3.29102H23.25C24.625 3.29102 25.75 4.41602 25.75 5.79102V8.54102C25.75 9.54102 25.125 10.791 24.5 11.416L19.125 16.166C18.375 16.791 17.875 18.041 17.875 19.041V24.416C17.875 25.166 17.375 26.166 16.75 26.541L15 27.666C13.375 28.666 11.125 27.541 11.125 25.541V18.916C11.125 18.041 10.625 16.916 10.125 16.291L5.375 11.291C4.75 10.666 4.25 9.54102 4.25 8.79102V5.91602C4.25 4.41602 5.375 3.29102 6.75 3.29102Z" stroke="#151411" stroke-width="2" stroke-miterlimit="10" stroke-linecap="round" stroke-linejoin="round"/>
<path d="M13.6625 3.29102L7.5 13.166" stroke="#151411" stroke-width="2" stroke-miterlimit="10" stroke-linecap="round" stroke-linejoin="round"/>
</svg>
