<svg width="15" height="13" viewBox="0 0 15 13" fill="none" xmlns="http://www.w3.org/2000/svg">
<path d="M15 1.92545C14.4484 2.15977 13.8481 2.32841 13.2298 2.39409C13.8717 2.01853 14.3525 1.42521 14.5818 0.725451C13.9794 1.07833 13.3195 1.32578 12.6313 1.45681C12.3437 1.15402 11.9958 0.9128 11.6094 0.748186C11.2229 0.583572 10.8062 0.499092 10.3852 0.500007C8.68165 0.500007 7.31162 1.85977 7.31162 3.52841C7.31162 3.76273 7.34046 3.99705 7.38733 4.22249C4.83656 4.09113 2.56159 2.89113 1.04915 1.05385C0.77357 1.51737 0.629156 2.04514 0.630934 2.58225C0.630934 3.63314 1.17354 4.55977 2.00096 5.10474C1.51335 5.08583 1.03715 4.95385 0.611104 4.71953V4.75681C0.611104 6.22841 1.66747 7.44793 3.07535 7.72841C2.81101 7.79602 2.53907 7.83061 2.26595 7.83136C2.06586 7.83136 1.87658 7.81184 1.68549 7.78521C2.07487 8.98521 3.20875 9.85681 4.55895 9.88521C3.50258 10.7 2.17943 11.1793 0.742699 11.1793C0.484918 11.1793 0.246966 11.1704 0 11.142C1.36282 12.003 2.97981 12.5 4.72119 12.5C10.3744 12.5 13.4677 7.88817 13.4677 3.88521C13.4677 3.75385 13.4677 3.62249 13.4587 3.49113C14.0572 3.05977 14.5818 2.52545 15 1.92545Z" fill="white"/>
</svg>
