<svg width="48" height="41" viewBox="0 0 48 41" fill="none" xmlns="http://www.w3.org/2000/svg">
<circle cx="34.5" cy="26.666" r="13.5" fill="#CBD7D3"/>
<path d="M3.82812 7.82227C1.71696 7.82227 0 6.10531 0 3.99414C0 1.88298 1.71696 0.166016 3.82812 0.166016C5.93929 0.166016 7.65625 1.88298 7.65625 3.99414C7.65625 6.10531 5.93929 7.82227 3.82812 7.82227ZM3.82812 0.986328C2.16927 0.986328 0.820312 2.33529 0.820312 3.99414C0.820312 5.65299 2.16927 7.00195 3.82812 7.00195C5.48698 7.00195 6.83594 5.65299 6.83594 3.99414C6.83594 2.33529 5.48698 0.986328 3.82812 0.986328ZM31.1719 35.166C29.0607 35.166 27.3438 33.4479 27.3438 31.3379C27.3438 29.2279 29.0618 27.5098 31.1719 27.5098C33.2819 27.5098 35 29.2279 35 31.3379C35 33.4479 33.283 35.166 31.1719 35.166ZM31.1719 28.3301C29.513 28.3301 28.1641 29.679 28.1641 31.3379C28.1641 32.9967 29.513 34.3457 31.1719 34.3457C32.8307 34.3457 34.1797 32.9967 34.1797 31.3379C34.1797 29.679 32.8307 28.3301 31.1719 28.3301ZM3.82812 32.8874C2.97363 32.8874 2.27865 32.1924 2.27865 31.3379C2.27865 30.4834 2.97363 29.7884 3.82812 29.7884C4.68262 29.7884 5.3776 30.4834 5.3776 31.3379C5.3776 32.1924 4.68262 32.8874 3.82812 32.8874ZM3.82812 30.6087C3.42594 30.6087 3.09896 30.9357 3.09896 31.3379C3.09896 31.7401 3.42594 32.0671 3.82812 32.0671C4.23031 32.0671 4.55729 31.7401 4.55729 31.3379C4.55729 30.9357 4.23031 30.6087 3.82812 30.6087ZM31.1719 5.54362C30.3174 5.54362 29.6224 4.84863 29.6224 3.99414C29.6224 3.13965 30.3174 2.44466 31.1719 2.44466C32.0264 2.44466 32.7214 3.13965 32.7214 3.99414C32.7214 4.84863 32.0264 5.54362 31.1719 5.54362ZM31.1719 3.26497C30.7697 3.26497 30.4427 3.59196 30.4427 3.99414C30.4427 4.39632 30.7697 4.72331 31.1719 4.72331C31.5741 4.72331 31.901 4.39632 31.901 3.99414C31.901 3.59196 31.5741 3.26497 31.1719 3.26497ZM17.5 23.7728C14.1322 23.7728 11.3932 21.0327 11.3932 17.666C11.3932 14.2982 14.1322 11.5592 17.5 11.5592C20.8667 11.5592 23.6068 14.2982 23.6068 17.666C23.6068 21.0327 20.8667 23.7728 17.5 23.7728ZM17.5 12.3796C14.5845 12.3796 12.2135 14.7516 12.2135 17.666C12.2135 20.5804 14.5856 22.9525 17.5 22.9525C20.4144 22.9525 22.7865 20.5815 22.7865 17.666C22.7865 14.7505 20.4155 12.3796 17.5 12.3796ZM17.5 21.4941C15.3888 21.4941 13.6719 19.776 13.6719 17.666C13.6719 15.556 15.3888 13.8379 17.5 13.8379C19.6112 13.8379 21.3281 15.5548 21.3281 17.666C21.3281 19.7772 19.6112 21.4941 17.5 21.4941ZM17.5 14.6582C15.8411 14.6582 14.4922 16.0083 14.4922 17.666C14.4922 19.3249 15.8423 20.6738 17.5 20.6738C19.1589 20.6738 20.5078 19.3249 20.5078 17.666C20.5078 16.0072 19.1589 14.6582 17.5 14.6582ZM31.1719 0.166016C29.0607 0.166016 27.3438 1.88298 27.3438 3.99414C27.3438 4.90218 27.6742 5.72477 28.2039 6.38216L23.8232 10.7629C22.1006 9.889 20.0156 9.2806 17.5 9.2806C8.22249 9.2806 4.62565 17.4222 4.59033 17.5042C4.5459 17.6068 4.5459 17.7241 4.59033 17.8267C4.61426 17.8836 6.32666 21.7585 10.4168 24.1681L6.21501 28.3688C5.55876 27.8402 4.73503 27.5098 3.82812 27.5098C1.71696 27.5098 0 29.2279 0 31.3379C0 33.4479 1.71696 35.166 3.82812 35.166C5.93929 35.166 7.65625 33.4491 7.65625 31.3379C7.65625 30.431 7.32585 29.6073 6.79606 28.9499L11.1768 24.5692C12.8994 25.443 14.9844 26.0514 17.5 26.0514C26.7786 26.0514 30.3743 17.9098 30.4097 17.8267C30.4541 17.7241 30.4541 17.6068 30.4097 17.5042C30.3857 17.4473 28.6733 13.5736 24.5832 11.1628L28.7839 6.96094C29.4412 7.49186 30.265 7.82227 31.1719 7.82227C33.283 7.82227 35 6.10531 35 3.99414C35 1.88298 33.283 0.166016 31.1719 0.166016ZM6.83594 31.3379C6.83594 32.9967 5.48584 34.3457 3.82812 34.3457C2.17041 34.3457 0.820312 32.9967 0.820312 31.3379C0.820312 29.679 2.16927 28.3301 3.82812 28.3301C5.48698 28.3301 6.83594 29.679 6.83594 31.3379ZM29.5802 17.666C29.0334 18.7791 25.5151 25.2311 17.5 25.2311C9.48486 25.2311 5.96663 18.7791 5.4209 17.666C5.96663 16.5529 9.486 10.1009 17.5 10.1009C25.514 10.1009 29.0322 16.5529 29.5802 17.666ZM31.1719 7.00195C30.437 7.00195 29.7716 6.72624 29.2487 6.28646L28.8841 5.92188C28.4409 5.39893 28.1641 4.73128 28.1641 3.99414C28.1641 2.33529 29.513 0.986328 31.1719 0.986328C32.8307 0.986328 34.1797 2.33529 34.1797 3.99414C34.1797 5.65299 32.8307 7.00195 31.1719 7.00195Z" fill="#0747A1"/>
</svg>
